<svg viewBox="0 0 232 232" fill="none" xmlns="http://www.w3.org/2000/svg">
<path d="M19.334 183.667V87C19.334 76.3225 27.9898 67.6667 38.6673 67.6667H43.5007C49.5859 67.6667 55.3161 64.8016 58.9673 59.9333L80.4273 31.32C81.5227 29.8596 83.2418 29 85.0673 29H146.934C148.76 29 150.479 29.8596 151.574 31.32L173.034 59.9333C176.685 64.8016 182.416 67.6667 188.501 67.6667H193.334C204.012 67.6667 212.667 76.3225 212.667 87V183.667C212.667 194.344 204.012 203 193.334 203H38.6673C27.9898 203 19.334 194.344 19.334 183.667Z" stroke="white" stroke-width="25" stroke-linecap="round" stroke-linejoin="round"/>
<path d="M116.001 164.333C137.355 164.333 154.667 147.021 154.667 125.667C154.667 104.312 137.355 87 116.001 87C94.6456 87 77.334 104.312 77.334 125.667C77.334 147.021 94.6456 164.333 116.001 164.333Z" stroke="white" stroke-width="25" stroke-linecap="round" stroke-linejoin="round"/>
</svg>
