<svg  viewBox="0 0 158 157" fill="none" xmlns="http://www.w3.org/2000/svg">
<path d="M144.266 19.8725V49.2157C144.266 51.0282 142.796 52.4975 140.984 52.4975C139.679 52.4975 138.505 51.7213 137.944 50.5439C127.453 28.5474 105.01 13.3475 79.0156 13.3475C45.1813 13.3475 17.3616 39.0996 14.0879 72.0725" stroke="white" stroke-width="12" stroke-linecap="round" stroke-linejoin="round"/>
<path d="M39.85 107.308V61.5917C39.85 59.4295 41.6028 57.6767 43.765 57.6767H51.4177C52.7484 57.6767 53.988 57.0008 54.7087 55.8822L64.1412 41.2426C64.862 40.124 66.1014 39.4481 67.4325 39.4481H90.5675C91.8986 39.4481 93.1377 40.124 93.8587 41.2426L103.291 55.8822C104.012 57.0008 105.251 57.6767 106.582 57.6767H114.235C116.397 57.6767 118.15 59.4295 118.15 61.5917V107.308C118.15 109.471 116.397 111.223 114.235 111.223H43.765C41.6028 111.223 39.85 109.471 39.85 107.308Z" stroke="white" stroke-width="12" stroke-linecap="round" stroke-linejoin="round"/>
<path d="M79.0002 91.6477C86.2077 91.6477 92.0502 85.8052 92.0502 78.5977C92.0502 71.3902 86.2077 65.5477 79.0002 65.5477C71.7927 65.5477 65.9502 71.3902 65.9502 78.5977C65.9502 85.8052 71.7927 91.6477 79.0002 91.6477Z" stroke="white" stroke-width="12" stroke-linecap="round" stroke-linejoin="round"/>
<path d="M14.0813 137.323V107.98C14.0813 106.167 15.5506 104.698 17.3631 104.698C18.6676 104.698 19.8415 105.474 20.403 106.652C30.8935 128.648 53.3373 143.848 79.3314 143.848C113.166 143.848 140.986 118.096 144.259 85.1229" stroke="white" stroke-width="12" stroke-linecap="round" stroke-linejoin="round"/>
</svg>
